<svg xmlns="http://www.w3.org/2000/svg" viewBox="0 0 827.55 845.96"><defs><style>.cls-1{fill:#e29119;}.cls-2{fill:#e2c893;}.cls-3{fill:#f1e2b3;}.cls-4{fill:#825b34;}</style></defs><g id="Layer_1" data-name="Layer 1"><path class="cls-1" d="M243.19,954s-179-76.08-155.31-245.59c0,0-33.51,43-30.75,97.37,0,0-105.65-139.16-7.89-366.22,0,0,53.62-175,272.8-205,0,0,100.91-160.83,157.68-119.84v20.5s17.34-28.38,86.72-14.19c0,0-33.11-17.34-47.3,201.83,0,0,78.84,44.16,94.61,97.77S626.36,538.9,698.9,586.2c0,0,90.27,66.63,103.28,77.66,0,0,25.23,1.19,33.11,24.44,0,0-18.92,56.38-28.38,53.22,0,0-15,29.17-54.79,19.32,0,0-40.21,45.33-67,26.8S487,718.86,444.44,728.32C444.44,728.32,270,708.41,243.19,954Z" transform="translate(-7.75 -108.04)"/><path class="cls-2" d="M339.38,362.3s-6.31-86.73,44.15-151.38c0,0,61.5-82.78,86.73-82,0,0,1.57,182.13-30,199.47,0,0-15,22.87-26.81,22.08,0,0-10.25,6.31,1.58-30,0,0,17.14-63.61-1.58-40.21-3.15,3.94,1.58,30.75-34.69,65.44,0,0-7.88-2.37-7.88-45.73C370.92,300,344.11,346.53,339.38,362.3Z" transform="translate(-7.75 -108.04)"/><path class="cls-2" d="M598,548.36s-30-20.5-35.48-44.94c0,0-19.71-12.61-62.28,7.89,0,0,44.15,33.9,52,37.05S598,548.36,598,548.36Z" transform="translate(-7.75 -108.04)"/><path class="cls-3" d="M553,507.36s12.15,21.25,0,27.6c0,0-39.42-9.46-41.78-21.29s46.51-15,37.84-6.31S553,507.36,553,507.36Z" transform="translate(-7.75 -108.04)"/></g><g id="Layer_2" data-name="Layer 2"><path class="cls-2" d="M235.31,944.14S67.38,686.33,323.61,626.41c0,0-40.63-10.25-71.17-7.09s120.87-37.47,217.83-.6c0,0-.8-18.32-26.82-22.27,0,0-1.57-9.46,80.42,22.08,0,0,141.13,85.15,200.26,100.92,0,0,21.28,9.46,67.8,7.09l15,15s-22.07,28.39-54.79,19.32c0,0-29.67,43.24-67,26.8S532.62,730.82,485.63,729.4s-79.81-12-152.06,32.75S243.19,954,243.19,954Z" transform="translate(-7.75 -108.04)"/><path class="cls-4" d="M791.14,722.6s-37.84-30.75,11-58.74c0,0,24.44-.39,33.11,24.44,0,0-3.23,35.78-23.92,51.35Z" transform="translate(-7.75 -108.04)"/></g></svg>