<?xml version="1.0" encoding="utf-8"?>
<!-- Generator: Adobe Illustrator 25.2.0, SVG Export Plug-In . SVG Version: 6.00 Build 0)  -->
<svg version="1.1" id="Layer_1" xmlns="http://www.w3.org/2000/svg" xmlns:xlink="http://www.w3.org/1999/xlink" x="0px" y="0px"
	 viewBox="0 0 93 47.9" style="enable-background:new 0 0 93 47.9;" xml:space="preserve">
<style type="text/css">
	.st0{clip-path:url(#SVGID_2_);}
	.st1{fill:url(#SVGID_3_);}
	.st2{clip-path:url(#SVGID_5_);}
	.st3{fill:url(#SVGID_6_);}
</style>
<g>
	<defs>
		<path id="SVGID_1_" d="M50.4,47.5H54V33.1h-3.6L50.4,47.5z M3.6,35.2L3.6,35.2v-2.1H0v14.4h3.6v-6.8c0-2,0.2-2.7,0.8-3.4
			c0.5-0.6,1.3-1,2.1-0.9c0.5,0,1,0.1,1.5,0.3l1.8-3.2C8.9,33,8,32.8,7.1,32.8C5.6,32.7,4.1,33.7,3.6,35.2 M15.6,35.8
			c1.8,0,2.7,1.6,2.7,3.3h-5.7C12.9,36.9,14,35.8,15.6,35.8 M8.9,40.4c0,4.8,2.7,7.5,7.5,7.5c1.7,0,3.4-0.3,5-1l-1.2-3
			c-1.1,0.5-2.3,0.8-3.5,0.8c-2.4,0-3.7-1-4-2.9h9.1c0.1-0.7,0.1-1.3,0.1-2c0-3.6-1.5-6.9-5.9-6.9C11.2,32.8,9,36.5,8.9,40.4
			 M23.1,40.4c0,4.8,2.9,7.5,7.3,7.5c1.5,0,2.9-0.3,4.3-0.9l-1.2-3.1c-0.9,0.5-1.9,0.8-2.9,0.7c-2.3,0-3.8-1.4-3.8-4.3
			c0-2.7,1.4-4.3,3.9-4.3c1,0,2,0.2,2.9,0.8l1.3-3.1c-1.4-0.6-2.9-0.9-4.4-0.9C25.8,32.8,23.1,35.9,23.1,40.4 M66.1,30.5v2.6h-4.9
			V28l-3.6,2.5v2.6h-2.2v3h2.2v7.1c-0.3,2.2,1.2,4.3,3.4,4.7c0.4,0.1,0.8,0.1,1.2,0c1.1,0,2.2-0.2,3.2-0.7l-1.2-3
			c-0.5,0.3-1,0.4-1.5,0.4c-1.1,0-1.5-0.6-1.5-1.6v-6.8h4.9v7.1c-0.3,2.2,1.2,4.3,3.4,4.7c0.4,0.1,0.8,0.1,1.2,0
			c1.1,0,2.2-0.2,3.2-0.7l-1.2-3c-0.5,0.3-1,0.4-1.5,0.4c-1.1,0-1.5-0.6-1.5-1.7v-6.8h3.8v-3h-3.8V28L66.1,30.5z M49.9,29.3
			c0,1.2,1,2.2,2.3,2.2c1.2,0,2.2-1,2.2-2.3c0-1.2-1-2.2-2.2-2.2C50.9,27,49.9,28,49.9,29.3 M36.2,28.9v18.6h3.6v-6.7l4.6,6.7h4.5
			l-5.7-8l5.8-6.4h-4.7l-4.5,5.3V26.3L36.2,28.9z"/>
	</defs>
	<clipPath id="SVGID_2_">
		<use xlink:href="#SVGID_1_"  style="overflow:visible;"/>
	</clipPath>
	<g class="st0">
		
			<linearGradient id="SVGID_3_" gradientUnits="userSpaceOnUse" x1="-1049.5428" y1="429.6657" x2="-1049.2229" y2="429.6657" gradientTransform="matrix(171.039 -119.7628 119.7628 171.039 128062.5938 -199128.2031)">
			<stop  offset="0" style="stop-color:#C41974"/>
			<stop  offset="0.25" style="stop-color:#FF007F"/>
			<stop  offset="1" style="stop-color:#FF007F"/>
		</linearGradient>
		<polygon class="st1" points="-10.1,33.4 49.6,-8.4 84.1,40.8 24.3,82.6 		"/>
	</g>
</g>
<g>
	<defs>
		<path id="SVGID_4_" d="M61.2,17.4c0,3.2,0.7,6.3,2.1,9.2l4.2-3c-1-2.1-1.5-4.4-1.4-6.7c0-7.2,5.3-12.7,12.1-12.7
			c6.6,0,10.7,4.7,10.7,10.7c0,5.4-3.6,8.9-8.3,8.9c-4.5,0-7.6-3.1-7.6-7.4c0-3.8,2.4-6.4,5.3-6.4c2.2,0,3.4,1,3.4,2.6
			c0,1.8-1.9,2.8-3.8,2.3l-2,1.4c1.7,2.1,3.6,3.9,5.8,5.4l2.1-1.5c-1.2-0.9-2.4-1.9-3.4-3c2.4-0.2,4.3-2.3,4.3-4.7
			c0-3.2-2.3-5.5-6.3-5.5c-4.8,0-8.8,3.9-8.8,9.5c0,6.2,4.5,10.8,11.1,10.8C87.9,27.4,93,22,93,14.8C93,6.3,87.1,0,78,0
			C68.7,0,61.2,7.2,61.2,17.4"/>
	</defs>
	<clipPath id="SVGID_5_">
		<use xlink:href="#SVGID_4_"  style="overflow:visible;"/>
	</clipPath>
	<g class="st2">
		
			<linearGradient id="SVGID_6_" gradientUnits="userSpaceOnUse" x1="-1048.0936" y1="434.1345" x2="-1047.7736" y2="434.1345" gradientTransform="matrix(84.8887 -59.4397 59.4397 84.8887 63229.1563 -99127.7031)">
			<stop  offset="0" style="stop-color:#FF007F"/>
			<stop  offset="0.5" style="stop-color:#FF007F"/>
			<stop  offset="1" style="stop-color:#FF593D"/>
		</linearGradient>
		<polygon class="st3" points="48.3,9 82.5,-14.9 105.9,18.4 71.7,42.4 		"/>
	</g>
</g>
</svg>
