<?xml version="1.0" encoding="utf-8"?>
<!-- Generator: Adobe Illustrator 23.0.1, SVG Export Plug-In . SVG Version: 6.00 Build 0)  -->
<svg version="1.1" id="Layer_1" xmlns="http://www.w3.org/2000/svg" xmlns:xlink="http://www.w3.org/1999/xlink" x="0px" y="0px"
	 viewBox="0 0 655.6 278" style="enable-background:new 0 0 655.6 278;" xml:space="preserve">
<style type="text/css">
	.st0{fill:#FDC300;}
	.st1{fill:#E60064;}
	.st2{fill:#8D207A;}
	.st3{fill:#00A2AE;}
	.st4{fill:#009FE3;}
	.st5{fill:#164194;}
	.st6{fill:#312783;}
</style>
<g>
	<g>
		<g>
			<g>
				<path class="st0" d="M241.8,229.6c40.8,34,86.5,40.4,86.5,40.4s-15.8-13.8-33.6-40.4C280.9,229.6,262.7,229.6,241.8,229.6z"/>
			</g>
			<g>
				<path class="st0" d="M271.6,188.9c-18.5,0-40.8,0-65.2,0c10.1,16.4,22.1,29.6,34.7,40.1c16.9,0.2,34.7,0.5,53.4,0.5
					C287,218.4,279,204.8,271.6,188.9z"/>
			</g>
			<g>
				<path class="st0" d="M243.4,107C206.1,17.2,118,0,118,0s29.8,46,54.4,105.3C194,106,217.6,106.6,243.4,107z"/>
			</g>
			<g>
				<path class="st0" d="M256.2,148.2c-20.1,0-43.3,0-68,0c0.1,0.5,0.4,1.1,0.5,1.6c4.4,14.2,10.3,26.8,16.9,37.8
					c20.3,0.5,42.3,0.9,65.9,1.1C265.9,176.6,260.6,163,256.2,148.2z"/>
			</g>
			<g>
				<path class="st0" d="M187.6,146.5c21,0.6,43.8,1.1,68.5,1.5c-1.2-4-2.3-8.2-3.4-12.4c-2.4-10-5.6-19.3-9.2-28
					c-21.2,0-45.2,0-70.2,0C178.5,120.1,183.3,133.2,187.6,146.5z"/>
			</g>
		</g>
		<g>
			<g>
				<path class="st1" d="M142,148.2c3.5,6.2,7,12.6,10.3,19.1c3.5,6.8,7.2,13.2,11.2,19.1c22.5,0.9,47.2,1.5,74.5,2
					c-7.9-11.9-15.5-25.2-22.4-40.1C192.5,148.2,167.3,148.2,142,148.2z"/>
			</g>
			<g>
				<path class="st1" d="M140.1,144.7c22.4,1,47.3,1.8,75.1,2.6c-0.7-1.6-1.3-3.1-2.1-4.6c-5.7-13.2-12.4-24.8-19.6-35
					c-24.7,0-51,0-76.7,0C124.5,119.1,132.5,131.6,140.1,144.7z"/>
			</g>
			<g>
				<path class="st1" d="M238.5,188.9c-22.3,0-47.3,0-73.1,0c11.6,16.6,25.1,29.5,38.9,39.4c20.5,0.5,42.8,0.9,66.8,1.1
					C260.6,218.8,249.4,205.3,238.5,188.9z"/>
			</g>
			<g>
				<path class="st1" d="M271.1,229.6c-18.5,0-40.8,0-65.1,0c49.4,34.5,103.7,32.9,103.7,32.9S292.7,252,271.1,229.6z"/>
			</g>
			<g>
				<path class="st1" d="M192.3,105.9C139.9,33.5,57.6,31.3,57.6,31.3s26.8,29.1,55.8,71.3C136.4,103.9,162.6,105,192.3,105.9z"/>
			</g>
		</g>
		<g>
			<g>
				<path class="st2" d="M156.1,226.8c24.9,1,52.9,1.8,84,2.3C227,219,212.3,205.8,197.8,189c-25.9,0-53.8,0-81,0
					C128.9,204.9,142.3,217.3,156.1,226.8z"/>
			</g>
			<g>
				<path class="st2" d="M79.3,141.1c24.5,1.8,53.3,3.4,87.3,4.6c-10.3-15.4-21.5-28-33.3-38.3c-29.5,0-58.9,0-85.2,0
					C57.9,117.5,68.5,128.8,79.3,141.1z"/>
			</g>
			<g>
				<path class="st2" d="M113.3,184c24.2,1.3,51.8,2.6,83.3,3.4c-9-10.6-18.1-22.7-26.5-36.3c-0.6-1-1.2-2-1.8-2.9
					c-27.4,0-55.9,0-82.8,0C94.9,159.5,104.3,171.6,113.3,184z"/>
			</g>
			<g>
				<path class="st2" d="M128.4,103.3C69,55.1,0.3,63.3,0.3,63.3S15.7,75.9,37,96.6C60.8,99,90.9,101.5,128.4,103.3z"/>
			</g>
			<g>
				<path class="st2" d="M160.5,229.6c58.5,37.5,122.6,26.4,122.6,26.4s-18.1-7.8-42.2-26.4C216.7,229.6,189,229.6,160.5,229.6z"/>
			</g>
		</g>
	</g>
	<g>
		<g>
			<g>
				<path class="st3" d="M414,229.6c-40.8,34-86.5,40.4-86.5,40.4s15.8-13.8,33.6-40.4C374.8,229.6,393.1,229.6,414,229.6z"/>
			</g>
			<g>
				<path class="st3" d="M384.1,188.9c18.5,0,40.8,0,65.2,0c-10.1,16.4-22.1,29.6-34.7,40.1c-16.9,0.2-34.7,0.5-53.4,0.5
					C368.8,218.4,376.8,204.8,384.1,188.9z"/>
			</g>
			<g>
				<path class="st3" d="M412.5,107C449.8,17.2,537.8,0,537.8,0S508,46,483.4,105.3C461.8,106,438.2,106.6,412.5,107z"/>
			</g>
			<g>
				<path class="st3" d="M399.5,148.2c20.1,0,43.3,0,68,0c-0.1,0.5-0.4,1.1-0.5,1.6c-4.4,14.2-10.3,26.8-16.9,37.8
					c-20.3,0.5-42.3,0.9-65.9,1.1C389.9,176.6,395.1,163,399.5,148.2z"/>
			</g>
			<g>
				<path class="st3" d="M468.1,146.5c-21,0.6-43.8,1.1-68.5,1.5c1.2-4,2.3-8.2,3.4-12.4c2.4-10,5.6-19.3,9.2-28
					c21.2,0,45.2,0,70.2,0C477.3,120.1,472.4,133.2,468.1,146.5z"/>
			</g>
		</g>
		<g>
			<g>
				<path class="st4" d="M513.8,148.2c-3.5,6.2-7,12.6-10.3,19.1c-3.5,6.8-7.2,13.2-11.2,19.1c-22.5,0.9-47.2,1.5-74.5,2
					c7.9-11.9,15.5-25.2,22.4-40.1C463.2,148.2,488.4,148.2,513.8,148.2z"/>
			</g>
			<g>
				<path class="st4" d="M515.8,144.7c-22.4,1-47.3,1.8-75.1,2.6c0.7-1.6,1.3-3.1,2.1-4.6c5.7-13.2,12.4-24.8,19.6-35
					c24.7,0,51,0,76.7,0C531.2,119.1,523.3,131.6,515.8,144.7z"/>
			</g>
			<g>
				<path class="st4" d="M417.4,188.9c22.3,0,47.3,0,73.1,0c-11.6,16.6-25.1,29.5-38.9,39.4c-20.5,0.5-42.8,0.9-66.8,1.1
					C395.1,218.8,406.5,205.3,417.4,188.9z"/>
			</g>
			<g>
				<path class="st4" d="M384.6,229.6c18.5,0,40.8,0,65.1,0C400.3,264.1,346,262.5,346,262.5S363.1,252,384.6,229.6z"/>
			</g>
			<g>
				<path class="st4" d="M463.6,105.9C516,33.5,598.2,31.3,598.2,31.3s-26.8,29.1-55.8,71.3C519.4,103.9,493.2,105,463.6,105.9z"/>
			</g>
		</g>
		<g>
			<g>
				<path class="st5" d="M499.7,226.8c-24.9,1-52.9,1.8-84,2.3c13.1-10.1,27.8-23.4,42.3-40.1c25.9,0,53.8,0,81,0
					C527,204.9,513.5,217.3,499.7,226.8z"/>
			</g>
			<g>
				<path class="st5" d="M576.5,141.1c-24.5,1.8-53.3,3.4-87.3,4.6c10.3-15.4,21.5-28,33.3-38.3c29.5,0,58.9,0,85.2,0
					C597.9,117.5,587.2,128.8,576.5,141.1z"/>
			</g>
			<g>
				<path class="st5" d="M542.6,184c-24.2,1.3-51.8,2.6-83.3,3.4c9-10.6,18.1-22.7,26.5-36.3c0.6-1,1.2-2,1.8-2.9
					c27.4,0,55.9,0,82.8,0C560.8,159.5,551.4,171.6,542.6,184z"/>
			</g>
			<g>
				<path class="st5" d="M527.4,103.3c59.4-48.2,128.2-40,128.2-40s-15.4,12.6-36.7,33.3C594.9,99,565,101.5,527.4,103.3z"/>
			</g>
			<g>
				<path class="st5" d="M495.4,229.6c-58.5,37.5-122.6,26.4-122.6,26.4s18.1-7.8,42.2-26.4C439,229.6,466.8,229.6,495.4,229.6z"/>
			</g>
		</g>
	</g>
</g>
<rect x="126.2" y="256.1" class="st6" width="403.4" height="13.9"/>
</svg>
