<?xml version="1.0" encoding="utf-8"?>
<!-- Generator: Adobe Illustrator 22.1.0, SVG Export Plug-In . SVG Version: 6.00 Build 0)  -->
<svg version="1.1" id="Layer_1" xmlns="http://www.w3.org/2000/svg" xmlns:xlink="http://www.w3.org/1999/xlink" x="0px" y="0px"
	 viewBox="0 0 640.5 196.9" style="enable-background:new 0 0 640.5 196.9;" xml:space="preserve">
<style type="text/css">
	.st0{fill:#29338A;}
	.st1{fill:#878686;}
</style>
<g>
	<g>
		<g>
			<g>
				<path class="st0" d="M164.6,6c-5.6-2.5-13.7-3.7-24.4-3.7h-43V103h31.3V66.4H146c11.1,0,20.1-2.9,26.8-8.8s10-13.6,10-23.2
					c0-6.3-1.6-12-4.9-17C174.6,12.2,170.2,8.5,164.6,6z M138.4,44.8h-10.3V25.3h11.4c8.4,0,12.6,3.2,12.6,9.4
					C152,41.5,147.5,44.8,138.4,44.8z"/>
				<polygon class="st0" points="189.3,103 265.1,103 265.1,78.9 219.6,78.9 219.6,62.5 256.4,62.5 256.4,40.2 219.6,40.2 
					219.6,25.5 265.1,25.5 265.1,2.3 189.3,2.3 				"/>
				<path class="st0" d="M333.3,32.1c0,9,0.8,17.8,2.4,26.4c-2.4-5.6-6-12-10.6-19.3L301.5,2.3h-29.2V103h25.1V54.2
					c0-4.5-0.8-10-2.4-16.5c3.6,8.2,7.2,15.1,10.7,20.8l27.6,44.5h25.2V2.3h-25.2L333.3,32.1L333.3,32.1z"/>
				<polygon class="st0" points="467.9,103 543.6,103 543.6,78.9 498.2,78.9 498.2,62.5 534.9,62.5 534.9,40.2 498.2,40.2 
					498.2,25.5 543.6,25.5 543.6,2.3 467.9,2.3 				"/>
				<path class="st0" d="M622.3,59.1c7.2-3.4,12-7.3,14.3-11.8c2.4-4.5,3.5-9.6,3.5-15.4c0-8.9-3.2-16.1-9.6-21.5
					c-6.4-5.4-15.4-8.1-27-8.1h-52.6V103h30.9V64.5h9.7l14.7,38.5h34.3L622.3,59.1z M604.4,40.5c-2.4,1.6-5.5,2.4-9.4,2.4h-13.2
					V23.7H596c7.9,0,11.9,3.2,11.9,9.7C607.9,36.5,606.7,38.9,604.4,40.5z"/>
				<path class="st0" d="M72.6,43.4c-5.1-2-13.6-4.2-25.7-6.8c-4.4-0.9-7.3-1.9-8.9-2.9c-1.5-1-2.3-2.5-2.3-4.4
					c0-4.2,3.4-6.3,10.1-6.3c8.1,0,13.5,3.4,16.2,10.1h26.3c0-3.3-0.4-5.7-1-7.7l0,0v-0.1c-0.6-1.8-1.3-3.3-2.1-5.1l0,0
					C77.9,7.3,65.2,0.8,47,0.8c-13.5,0-23.9,3.1-31.1,9.4S5.1,24.4,5.1,33.9c0,7.4,2.5,13.8,7.5,19.3s16.3,9.9,34,13.2
					c4.6,0.9,7.8,2,9.6,3.2s2.7,2.9,2.7,5c0,4.1-3.9,6.2-11.7,6.2c-10,0-16.2-4.1-18.6-12.2H0c0,2,0.1,3.6,0.4,5.1l0,0l0,0
					c0.6,3.6,1.7,6,3,8.9l0,0c7.3,14.5,21.3,21.8,42,21.8c13.4,0,24.3-3.2,32.5-9.5c8.3-6.3,12.4-14.6,12.4-24.8
					c0-6.4-1.7-12-5.1-16.8C81.9,48.8,77.6,45.4,72.6,43.4z"/>
			</g>
			<g>
				<path class="st1" d="M113.2,140.3c1.7,0,3.3,0.1,4.8,0.4c1.5,0.2,2.9,1,4.2,2.3c0.3,0.3,0.7,0.7,1.1,1.2s0.7,1.1,1.1,1.8
					c0.3,0.7,0.6,1.5,0.8,2.4c0.2,0.9,0.3,1.9,0.3,3c0,0.4,0,0.9-0.1,1.5s-0.2,1.2-0.4,1.9c-0.2,0.7-0.6,1.4-1.1,2.1
					c-0.5,0.7-1.2,1.4-2,2.1c-0.2,0.2-0.4,0.3-0.7,0.5c-0.3,0.2-0.5,0.3-0.7,0.4c0.9,0.4,1.7,0.8,2.1,1.1c0.5,0.3,0.9,0.6,1.3,0.9
					c0.4,0.3,0.8,0.7,1.2,1.1c0.4,0.4,0.8,1,1.2,1.6c0.3,0.6,0.6,1.4,0.9,2.3c0.2,0.9,0.4,1.9,0.4,3c0,0.5,0,1.2-0.1,2
					s-0.3,1.8-0.6,2.7c-0.4,1-0.9,2-1.5,3s-1.6,2-2.7,2.9c-0.9,0.7-1.7,1.2-2.6,1.6c-0.9,0.4-1.8,0.7-2.8,0.9s-1.9,0.3-2.9,0.4
					c-1,0-2,0.1-3,0.1H97.2v-43.2H113.2z M107.9,156.9h3.6c0.1,0,0.3,0,0.6,0c0.3-0.1,0.7-0.1,1-0.2c0.8-0.3,1.4-0.8,1.8-1.4
					c0.4-0.7,0.6-1.4,0.6-2.2s-0.2-1.6-0.6-2.2c-0.4-0.7-1-1.1-1.9-1.4c-0.3-0.1-0.5-0.1-0.7-0.1s-0.5,0-1-0.1h-3.4V156.9z
					 M107.9,174.1h3.4c0.1,0,0.4,0,0.9,0s1-0.1,1.5-0.2c0.7-0.2,1.2-0.5,1.6-0.9s0.7-0.8,0.9-1.3c0.2-0.4,0.3-0.9,0.4-1.3
					c0.1-0.4,0.1-0.7,0.1-0.9s0-0.6-0.1-1s-0.2-0.9-0.5-1.4c-0.5-0.9-1.2-1.4-2.1-1.7c-0.8-0.2-1.7-0.3-2.6-0.4h-3.6L107.9,174.1
					L107.9,174.1z"/>
				<path class="st1" d="M142,150.5v4.6c0.1-0.1,0.3-0.4,0.6-0.8c0.3-0.4,0.7-0.8,1.1-1.2c0.7-0.7,1.5-1.3,2.2-1.7s1.5-0.6,2.2-0.8
					s1.3-0.2,1.8-0.2s1,0,1.3,0v9.3c-0.3,0-0.6-0.1-1-0.1c-0.3,0-0.7,0-1.1,0c-0.1,0-0.4,0-0.8,0.1c-0.5,0-1,0.1-1.6,0.3
					s-1.2,0.4-1.9,0.7c-0.6,0.3-1.1,0.8-1.5,1.3c-0.2,0.4-0.4,0.8-0.5,1.2s-0.2,1.1-0.2,1.8v18.4h-10v-33L142,150.5L142,150.5z"/>
				<path class="st1" d="M165.7,140.3v7.5h-10v-7.5H165.7z M165.7,150.4v33h-10v-33H165.7z"/>
				<path class="st1" d="M183.4,140.3v10.1h4.2v7.7h-4.3v25.4h-10V158h-3.6v-7.7h3.7v-10H183.4z"/>
				<path class="st1" d="M201.5,140.3v7.5h-10v-7.5H201.5z M201.5,150.4v33h-10v-33H201.5z"/>
				<path class="st1" d="M222.1,160.1c-0.1-0.6-0.2-1.1-0.3-1.5c-0.1-0.5-0.5-0.9-1-1.2c-0.4-0.2-0.8-0.4-1.3-0.4
					c-0.7,0-1.3,0.2-1.7,0.7c-0.5,0.5-0.7,1.1-0.7,1.8c0,0.9,0.4,1.6,1.1,2.1c0.4,0.2,0.9,0.5,1.5,0.7c0.7,0.2,1.5,0.4,2.4,0.7
					c1.3,0.3,2.5,0.7,3.6,1s2.2,0.9,3.3,1.7c1.3,0.9,2.2,2,2.7,3.2s0.8,2.5,0.8,4.1c0,0.4,0,0.8-0.1,1.3c0,0.5-0.2,1.1-0.4,1.7
					c-0.2,0.6-0.4,1.2-0.8,1.9c-0.4,0.7-0.9,1.3-1.5,2c-0.4,0.4-0.9,0.9-1.5,1.4s-1.3,1-2.2,1.4s-1.9,0.7-3,1s-2.4,0.4-3.9,0.4
					c-2.5,0-4.4-0.3-5.9-1s-2.6-1.4-3.4-2.1c-0.5-0.4-1-0.9-1.5-1.5c-0.5-0.5-0.8-1.1-1.2-1.7c-0.5-1-0.8-1.8-0.9-2.6
					c-0.1-0.8-0.2-1.4-0.3-1.7h10c0.1,0.1,0.1,0.3,0.1,0.5c0,0.3,0.1,0.5,0.2,0.8c0.1,0.2,0.3,0.5,0.4,0.8c0.2,0.3,0.5,0.5,0.8,0.7
					s0.6,0.3,0.9,0.4c0.3,0,0.5,0.1,0.6,0.1c0.6,0,1-0.1,1.4-0.3c0.3-0.2,0.6-0.5,0.8-0.7c0.2-0.3,0.3-0.5,0.4-0.8
					c0.1-0.3,0.1-0.6,0.1-0.7c0-0.2,0-0.4-0.1-0.7s-0.2-0.6-0.4-0.9c-0.4-0.6-1.1-1-1.9-1.2c-0.8-0.2-1.8-0.5-3.2-0.8
					c-1.9-0.5-3.4-1-4.3-1.5c-1-0.5-1.8-1.1-2.5-1.7c-0.6-0.6-1.1-1.2-1.4-1.9c-0.4-0.6-0.6-1.3-0.8-1.8c-0.1-0.6-0.2-1.1-0.3-1.6
					c0-0.5-0.1-0.9-0.1-1.2c0-1.2,0.1-2.2,0.4-2.9c0.3-0.8,0.5-1.4,0.7-1.8c0.6-1.1,1.3-2,2.1-2.8s1.8-1.5,2.8-2s2.1-0.9,3.2-1.1
					c1.1-0.3,2.3-0.4,3.4-0.4c1.8,0,3.4,0.2,4.7,0.7s2.4,1.1,3.3,1.8c0.9,0.7,1.6,1.5,2.1,2.3s0.9,1.6,1.1,2.3
					c0.3,0.7,0.4,1.3,0.4,1.9c0,0.6,0.1,1,0.1,1.2L222.1,160.1L222.1,160.1z"/>
				<path class="st1" d="M247.3,140.3v13c0.1-0.1,0.3-0.3,0.5-0.6c0.3-0.3,0.6-0.6,1-0.9c0.9-0.7,2-1.3,3.2-1.6s2.4-0.5,3.6-0.5
					c1.5,0,2.8,0.2,4,0.6c1.1,0.4,2.1,0.9,2.9,1.5s1.4,1.2,1.9,1.9s0.9,1.2,1.2,1.7c1,1.7,1.6,3.6,1.7,5.4c0.1,1.8,0.2,3.7,0.2,5.7
					v16.9h-9.9v-19.3c0-0.2,0-0.5,0-0.9s-0.1-0.8-0.2-1.2s-0.3-0.9-0.6-1.4c-0.3-0.5-0.6-0.9-1.1-1.3c-0.2-0.2-0.6-0.4-1.1-0.6
					c-0.5-0.2-1.1-0.3-1.9-0.3c-1.1,0-2.1,0.3-3.1,0.9c-1,0.6-1.7,1.5-2,2.5c-0.2,0.5-0.2,0.9-0.3,1.3c0,0.4,0,0.8-0.1,1.2v19h-9.9
					v-43.2h10V140.3z"/>
				<path class="st1" d="M318,149.9h-13.1v6.5H318v10.1h-13.1v7.1h13.2v9.8h-24.6v-43.2H318V149.9z"/>
				<path class="st1" d="M354.2,183.4h-9.9v-18.5c0-1-0.1-2-0.3-2.9c-0.2-1-0.7-1.8-1.5-2.5c-0.3-0.2-0.6-0.4-1.1-0.6
					c-0.5-0.2-1.1-0.3-1.9-0.3c-0.2,0-0.6,0-1.1,0.1s-1,0.2-1.5,0.5c-0.5,0.2-1,0.6-1.5,1s-0.9,1.1-1.2,1.8
					c-0.1,0.5-0.2,0.9-0.3,1.2c0,0.4-0.1,1-0.1,1.8v18.4H324v-33.1h10v3c1.1-1.3,2.3-2.2,3.6-2.7c1.3-0.5,2.8-0.8,4.5-0.8
					c0.3,0,0.9,0,1.6,0.1s1.6,0.3,2.5,0.6c1.8,0.6,3.4,1.6,4.7,3c1.3,1.4,2.1,3,2.6,4.9c0.3,1.2,0.5,2.3,0.6,3.4
					c0.1,1.1,0.1,2.3,0.1,3.5L354.2,183.4L354.2,183.4z"/>
				<path class="st1" d="M384,150.4h9.6v27.8c0,1.1,0,2.2-0.1,3.4c0,1.2-0.2,2.3-0.4,3.4c-0.2,1.1-0.5,2.2-0.9,3.2
					c-0.4,1.1-1,2-1.8,2.9c-0.5,0.6-1.1,1.2-1.9,1.9s-1.8,1.3-2.9,1.9c-1.1,0.6-2.4,1.1-3.9,1.4c-1.5,0.4-3.2,0.6-5,0.6
					s-3.5-0.2-5-0.5c-1.5-0.4-2.8-0.8-3.9-1.4c-1.1-0.6-2.1-1.1-2.9-1.8c-0.8-0.6-1.4-1.2-1.9-1.8c-1-1.2-1.7-2.5-2.1-3.8
					c-0.2-0.4-0.3-0.8-0.4-1.2c-0.1-0.3-0.1-0.8-0.2-1.3l11.1,0.1c0.1,0.3,0.1,0.5,0.2,0.7s0.2,0.4,0.4,0.6c0.4,0.5,0.8,0.9,1.3,1.1
					c0.5,0.3,1,0.5,1.5,0.6s0.9,0.2,1.3,0.2s0.6,0,0.7,0c1.4,0,2.7-0.3,3.9-1c1.2-0.6,2-1.7,2.5-3c0.2-0.5,0.3-0.9,0.4-1.3
					c0-0.4,0.1-1.1,0.2-2c-0.4,0.3-0.8,0.6-1.3,0.9c-0.5,0.3-1.1,0.7-1.8,1c-0.7,0.3-1.5,0.6-2.4,0.8s-1.9,0.3-3,0.3
					s-2.4-0.2-4.1-0.6c-1.7-0.4-3.5-1.4-5.4-3c-1.5-1.2-2.6-2.5-3.5-3.8c-0.9-1.4-1.5-2.7-2-3.9c-0.5-1.3-0.7-2.4-0.9-3.5
					c-0.1-1.1-0.2-1.9-0.2-2.6c0-0.9,0.1-2.2,0.4-3.8s1-3.4,2.2-5.4c1.4-2.3,3.2-4.2,5.5-5.7c2.2-1.4,4.7-2.2,7.6-2.2
					c1.2,0,2.2,0.1,3.2,0.4c0.9,0.2,1.8,0.5,2.5,0.9c0.8,0.4,1.4,0.7,2,1.1c0.5,0.4,1,0.7,1.3,0.9L384,150.4L384,150.4z
					 M371.3,172.1c0.7,0.7,1.5,1.2,2.4,1.6c0.9,0.4,1.9,0.6,2.9,0.6s2-0.2,2.9-0.6c0.9-0.4,1.7-0.9,2.4-1.6c0.7-0.7,1.2-1.5,1.6-2.4
					s0.6-1.9,0.6-2.9s-0.2-2-0.6-2.9s-0.9-1.7-1.6-2.4s-1.5-1.2-2.4-1.6c-0.9-0.4-1.9-0.6-2.9-0.6s-2,0.2-2.9,0.6
					c-0.9,0.4-1.7,0.9-2.4,1.6c-0.7,0.7-1.2,1.5-1.6,2.4s-0.6,1.9-0.6,2.9c0,0.7,0.1,1.3,0.2,1.9c0.2,0.6,0.4,1.1,0.6,1.5
					s0.5,0.8,0.7,1.1C371,171.7,371.2,172,371.3,172.1z"/>
				<path class="st1" d="M410.3,140.3v7.5h-10v-7.5H410.3z M410.3,150.4v33h-10v-33H410.3z"/>
				<path class="st1" d="M447.2,183.4h-9.9v-18.5c0-1-0.1-2-0.3-2.9c-0.2-1-0.7-1.8-1.5-2.5c-0.3-0.2-0.7-0.4-1.1-0.6
					c-0.5-0.2-1.1-0.3-1.9-0.3c-0.2,0-0.6,0-1.1,0.1s-1,0.2-1.5,0.5c-0.5,0.2-1,0.6-1.5,1s-0.9,1.1-1.1,1.8
					c-0.1,0.5-0.2,0.9-0.3,1.2c0,0.4-0.1,1-0.1,1.8v18.4h-9.8v-33.1h9.9v3c1.2-1.3,2.4-2.2,3.7-2.7c1.3-0.5,2.8-0.8,4.5-0.8
					c0.4,0,0.9,0,1.7,0.1c0.7,0.1,1.6,0.3,2.5,0.6c1.8,0.6,3.4,1.6,4.6,3c1.3,1.4,2.1,3,2.6,4.9c0.3,1.2,0.5,2.3,0.6,3.4
					c0.1,1.1,0.1,2.3,0.1,3.5v18.1H447.2z"/>
				<path class="st1" d="M461.8,170.3c0,0.1,0.2,0.4,0.4,0.8c0.2,0.5,0.5,0.9,0.8,1.2c0.8,1.1,1.8,1.9,3,2.4
					c1.2,0.6,2.4,0.8,3.7,0.8c0.7,0,1.5-0.1,2.2-0.3c0.8-0.2,1.5-0.5,2-0.9c0.2-0.1,0.4-0.2,0.6-0.3s0.4-0.4,0.7-0.7h10.2
					c-0.3,0.7-0.8,1.6-1.3,2.6s-1.4,2.2-2.7,3.4c-0.4,0.4-1,0.9-1.7,1.5s-1.5,1.1-2.5,1.6s-2.1,0.9-3.4,1.3
					c-1.3,0.4-2.7,0.5-4.3,0.5c-0.5,0-1.2,0-2-0.1s-1.7-0.3-2.7-0.5c-1-0.3-2-0.7-3.1-1.2s-2.2-1.2-3.3-2.1c-2-1.6-3.5-3.6-4.6-5.9
					c-1.1-2.3-1.7-4.8-1.7-7.4c0-0.5,0-1.2,0.1-2s0.3-1.7,0.5-2.7c0.3-1,0.7-2,1.2-3.1s1.2-2.2,2.1-3.2c1.6-1.9,3.6-3.5,5.9-4.6
					s4.8-1.6,7.4-1.6c0.5,0,1.1,0,2,0.1c0.8,0.1,1.7,0.3,2.7,0.5c1,0.3,2,0.7,3.1,1.2s2.2,1.3,3.2,2.2c1.9,1.5,3.4,3.5,4.5,5.8
					s1.7,4.7,1.7,7.2c0,0.6,0,1.1-0.1,1.7c-0.1,0.6-0.1,1.1-0.2,1.7h-24.4V170.3z M477,163.1c-0.2-0.4-0.5-0.8-0.8-1.3
					c-0.4-0.5-0.8-1-1.4-1.5s-1.3-0.9-2.2-1.2c-0.8-0.3-1.8-0.5-3-0.5c-1.8,0-3.3,0.5-4.8,1.5c-0.3,0.2-0.7,0.5-0.9,0.7
					c-0.3,0.3-0.4,0.5-0.5,0.6c-0.3,0.2-0.4,0.5-0.6,0.8s-0.3,0.6-0.5,0.9H477z"/>
				<path class="st1" d="M500,170.3c0,0.1,0.2,0.4,0.4,0.8c0.2,0.5,0.5,0.9,0.8,1.2c0.8,1.1,1.8,1.9,3,2.4c1.2,0.6,2.4,0.8,3.7,0.8
					c0.7,0,1.5-0.1,2.3-0.3s1.4-0.5,2-0.9c0.2-0.1,0.4-0.2,0.5-0.3c0.2-0.1,0.4-0.4,0.7-0.7h10.2c-0.3,0.7-0.8,1.6-1.3,2.6
					s-1.4,2.2-2.7,3.4c-0.4,0.4-1,0.9-1.7,1.5s-1.5,1.1-2.5,1.6s-2.1,0.9-3.4,1.3c-1.3,0.4-2.7,0.5-4.3,0.5c-0.5,0-1.2,0-2-0.1
					s-1.7-0.3-2.7-0.5c-1-0.3-2-0.7-3.1-1.2s-2.2-1.2-3.3-2.1c-2-1.6-3.5-3.6-4.6-5.9c-1.1-2.3-1.7-4.8-1.7-7.4c0-0.5,0.1-1.2,0.1-2
					c0.1-0.8,0.3-1.7,0.5-2.7c0.3-1,0.7-2,1.2-3.1s1.2-2.2,2.1-3.2c1.6-1.9,3.6-3.5,5.9-4.6s4.8-1.6,7.3-1.6c0.5,0,1.1,0,2,0.1
					c0.8,0.1,1.7,0.3,2.7,0.5c1,0.3,2,0.7,3.1,1.2s2.2,1.3,3.2,2.2c1.9,1.5,3.4,3.5,4.5,5.8s1.6,4.7,1.6,7.2c0,0.6,0,1.1,0,1.7
					c-0.1,0.6-0.1,1.1-0.2,1.7H500V170.3z M515.2,163.1c-0.2-0.4-0.5-0.8-0.8-1.3c-0.4-0.5-0.8-1-1.4-1.5c-0.6-0.5-1.3-0.9-2.1-1.2
					c-0.8-0.3-1.9-0.5-3-0.5c-1.8,0-3.3,0.5-4.8,1.5c-0.4,0.2-0.7,0.5-0.9,0.7c-0.3,0.3-0.4,0.5-0.5,0.6c-0.2,0.2-0.5,0.5-0.6,0.8
					c-0.2,0.3-0.3,0.6-0.5,0.9H515.2z"/>
				<path class="st1" d="M539.4,150.5v4.6c0.1-0.1,0.3-0.4,0.6-0.8c0.3-0.4,0.7-0.8,1.1-1.2c0.7-0.7,1.5-1.3,2.2-1.7
					c0.8-0.4,1.5-0.6,2.1-0.8c0.7-0.2,1.3-0.2,1.9-0.2c0.5,0,1,0,1.3,0v9.3c-0.3,0-0.7-0.1-1-0.1s-0.7,0-1.1,0c-0.1,0-0.4,0-0.8,0.1
					c-0.5,0-1,0.1-1.6,0.3s-1.2,0.4-1.8,0.7s-1.1,0.8-1.5,1.3c-0.2,0.4-0.4,0.8-0.5,1.2s-0.2,1.1-0.2,1.8v18.4h-10v-33L539.4,150.5
					L539.4,150.5z"/>
				<path class="st1" d="M563.1,140.3v7.5h-10v-7.5H563.1z M563.1,150.4v33h-10v-33H563.1z"/>
				<path class="st1" d="M600,183.4h-9.9v-18.5c0-1-0.1-2-0.3-2.9c-0.2-1-0.7-1.8-1.5-2.5c-0.3-0.2-0.7-0.4-1.1-0.6
					c-0.5-0.2-1.1-0.3-1.9-0.3c-0.2,0-0.6,0-1.1,0.1s-1,0.2-1.5,0.5c-0.5,0.2-1,0.6-1.5,1s-0.9,1.1-1.2,1.8
					c-0.1,0.5-0.2,0.9-0.3,1.2c-0.1,0.4-0.1,1-0.1,1.8v18.4h-9.8v-33.1h10v3c1.2-1.3,2.4-2.2,3.7-2.7s2.8-0.8,4.5-0.8
					c0.4,0,0.9,0,1.7,0.1c0.7,0.1,1.5,0.3,2.4,0.6c1.8,0.6,3.4,1.6,4.7,3c1.2,1.4,2.1,3,2.6,4.9c0.3,1.2,0.5,2.3,0.6,3.4
					c0.1,1.1,0.1,2.3,0.1,3.5v18.1H600z"/>
				<path class="st1" d="M629.8,150.4h9.6v27.8c0,1.1,0,2.2-0.1,3.4s-0.2,2.3-0.4,3.4c-0.2,1.1-0.5,2.2-0.9,3.2
					c-0.4,1.1-1,2-1.8,2.9c-0.5,0.6-1.1,1.2-1.9,1.9c-0.8,0.7-1.8,1.3-2.9,1.9c-1.1,0.6-2.4,1.1-3.9,1.4c-1.5,0.4-3.2,0.6-5.1,0.6
					c-1.8,0-3.5-0.2-5-0.5c-1.5-0.4-2.8-0.8-3.9-1.4c-1.1-0.6-2.1-1.1-2.9-1.8c-0.8-0.6-1.4-1.2-1.9-1.8c-1-1.2-1.7-2.5-2.1-3.8
					c-0.2-0.4-0.3-0.8-0.4-1.2c-0.1-0.3-0.1-0.8-0.2-1.3l11.1,0.1c0.1,0.3,0.1,0.5,0.2,0.7c0.1,0.2,0.2,0.4,0.4,0.6
					c0.4,0.5,0.8,0.9,1.3,1.1c0.5,0.3,1,0.5,1.5,0.6s0.9,0.2,1.3,0.2c0.4,0,0.7,0,0.8,0c1.4,0,2.7-0.3,3.8-1c1.2-0.6,2-1.7,2.5-3
					c0.2-0.5,0.3-0.9,0.4-1.3c0-0.4,0.1-1.1,0.2-2c-0.4,0.3-0.8,0.6-1.3,0.9c-0.5,0.3-1.1,0.7-1.8,1s-1.4,0.6-2.3,0.8
					c-0.9,0.2-1.9,0.3-3,0.3s-2.4-0.2-4.1-0.6c-1.7-0.4-3.5-1.4-5.4-3c-1.5-1.2-2.6-2.5-3.5-3.8c-0.8-1.4-1.5-2.7-1.9-3.9
					c-0.5-1.3-0.7-2.4-0.9-3.5c-0.1-1.1-0.2-1.9-0.2-2.6c0-0.9,0.1-2.2,0.4-3.8c0.3-1.6,1-3.4,2.2-5.4c1.4-2.3,3.2-4.2,5.5-5.7
					c2.2-1.4,4.7-2.2,7.5-2.2c1.2,0,2.2,0.1,3.2,0.4c0.9,0.2,1.8,0.5,2.5,0.9s1.4,0.7,1.9,1.1c0.6,0.4,1,0.7,1.3,0.9v-2.5H629.8z
					 M617.1,172.1c0.7,0.7,1.5,1.2,2.5,1.6c0.9,0.4,1.9,0.6,2.9,0.6s2-0.2,2.9-0.6c0.9-0.4,1.7-0.9,2.4-1.6c0.7-0.7,1.2-1.5,1.6-2.4
					c0.4-0.9,0.6-1.9,0.6-2.9s-0.2-2-0.6-2.9c-0.4-0.9-1-1.7-1.6-2.4c-0.7-0.7-1.5-1.2-2.4-1.6c-0.9-0.4-1.9-0.6-2.9-0.6
					s-2,0.2-2.9,0.6c-0.9,0.4-1.7,0.9-2.4,1.6c-0.7,0.7-1.2,1.5-1.6,2.4c-0.4,0.9-0.6,1.9-0.6,2.9c0,0.7,0.1,1.3,0.2,1.9
					c0.2,0.6,0.4,1.1,0.6,1.5c0.2,0.4,0.5,0.8,0.7,1.1C616.8,171.7,617,172,617.1,172.1z"/>
			</g>
		</g>
	</g>
	<path class="st0" d="M432.7,62.5l-0.1,0.4c-0.7,5.4-2.5,9.8-5.5,13c-2.8,3-6.6,4.5-11.8,4.5c-3.9,0-7.2-0.7-9.8-2.2
		c-2.7-1.5-4.8-3.5-6.5-5.9c-1.7-2.6-3-5.5-3.8-8.7c-0.8-3.4-1.3-6.9-1.3-10.5c0-3.8,0.4-7.5,1.3-11c0.8-3.4,2.1-6.4,3.8-9
		c1.7-2.5,3.8-4.4,6.5-5.9c2.6-1.4,5.9-2.2,9.8-2.2c2.1,0,4,0.3,5.9,1s3.6,1.6,5.1,2.8c1.5,1.2,2.7,2.6,3.7,4.2
		c0.9,1.5,1.5,3.1,1.8,5l0.3,2.1h27.6l-0.4-3.1c-0.7-5.9-2.3-11.2-4.9-15.8s-5.9-8.5-9.9-11.7c-4-3.1-8.5-5.5-13.5-7.1
		C426.2,0.8,420.9,0,415.4,0c-7.7,0-14.7,1.4-20.8,4.1c-6.2,2.7-11.5,6.6-15.8,11.4c-4.2,4.8-7.5,10.5-9.8,16.9
		c-2.2,6.4-3.3,13.3-3.3,20.7c0,7.2,1.1,14,3.4,20.3c2.2,6.3,5.5,11.9,9.8,16.6s9.6,8.5,15.8,11.2c6.2,2.7,13.2,4,20.8,4
		c6.2,0,11.9-1,17.1-2.8c5.3-1.9,9.9-4.7,13.9-8.4c3.9-3.6,7.1-8.1,9.5-13.2s3.8-10.9,4.4-17.1l0.1-1.3h-27.8V62.5z"/>
</g>
</svg>
