<?xml version="1.0" encoding="utf-8"?>
<!-- Generator: Adobe Illustrator 23.0.4, SVG Export Plug-In . SVG Version: 6.00 Build 0)  -->
<svg version="1.1" id="Layer_1" xmlns="http://www.w3.org/2000/svg" xmlns:xlink="http://www.w3.org/1999/xlink" x="0px" y="0px"
	 viewBox="0 0 740 99" style="enable-background:new 0 0 740 99;" xml:space="preserve">
<style type="text/css">
	.st0{fill-rule:evenodd;clip-rule:evenodd;fill:#FF9E18;}
	.st1{filter:url(#Adobe_OpacityMaskFilter);}
	.st2{fill-rule:evenodd;clip-rule:evenodd;fill:#FFFFFF;}
	.st3{mask:url(#mask-2_1_);fill-rule:evenodd;clip-rule:evenodd;fill:#FF9E18;}
</style>
<title>Logo</title>
<desc>Created with Sketch.</desc>
<g id="Narrative-V2">
	<g id="Welcome" transform="translate(-60.000000, -296.000000)">
		<g id="Logo" transform="translate(60.000000, 296.000000)">
			<g id="Group-30">
				<path id="Fill-1" class="st0" d="M181.9,22h-11.8c-1.2,0-2.1,0.9-2.1,2.1v50.9c0,1.1,1,2.1,2.1,2.1h11.8c1.2,0,2.1-0.9,2.1-2.1
					V24.1C184,22.9,183,22,181.9,22"/>
				<path id="Fill-3" class="st0" d="M175.5,0C170,0,167,2.8,167,8c0,5.2,3,8,8.5,8c5.5,0,8.5-2.8,8.5-8C184,2.8,181,0,175.5,0"/>
				<path id="Fill-5" class="st0" d="M234.6,64.4c-1-1.8-2.1-1.9-4.2-0.9c-1.9,0.8-3.4,1.1-5.1,1.1c-3.9,0-8.5-1.7-8.5-9.6V33.7
					h15.7c1.1,0,2.1-0.9,2.1-2.1V24c0-1.1-0.9-2.1-2.1-2.1h-15.7V6.6c0-1.4-1.2-1.7-1.9-1.6l-11.4,2.3c-1.2,0.2-2.2,1.4-2.2,2.6v12
					h-8.2c-1.1,0-2.1,0.9-2.1,2.1v7.7c0,1.1,0.9,2.1,2.1,2.1h8.2V59c0,11.9,7.9,19,21,19c5.2,0,10-1.2,13.5-3.5
					c2.3-1.5,2.7-2.9,1.4-5.3L234.6,64.4z"/>
				<path id="Fill-7" class="st0" d="M275.7,21c-5.1,0-10.1,1.6-14,3.3V3.1c0-1.1-0.9-2.1-2.1-2.1h-11.5c-1.1,0-2.1,0.9-2.1,2.1
					v71.8c0,1.1,0.9,2.1,2.1,2.1h11.5c1.1,0,2.1-0.9,2.1-2.1V38.5c3.5-1.9,8.2-3.3,11.6-3.3c7.5,0,9.1,4.2,9.1,11.1v28.6
					c0,1.1,0.9,2.1,2.1,2.1h11.5c1.1,0,2.1-0.9,2.1-2.1v-33C298,28.6,289.9,21,275.7,21"/>
				<path id="Fill-9" class="st0" d="M134.2,21c-6.5,0-13.8,3.3-18,6.2c-3.9-4.4-9.8-6.2-17.1-6.2c-5.3,0-10.9,2-15.6,4.7l-0.8-1.7
					c-0.8-1.6-1.2-2.1-2.7-2.1h-7.8c-1.1,0-2.1,0.9-2.1,2.1v50.9c0,1.1,0.9,2.1,2.1,2.1h11.5c1.1,0,2.1-0.9,2.1-2.1V38.5
					c3.5-2,7.5-3.3,10.7-3.3c7.4,0,8.9,4.1,8.9,11.1v28.6c0,1.1,0.9,2.1,2.1,2.1h11.5c1.1,0,2.1-0.9,2.1-2.1V42c0-1-0.1-2.4-0.2-3.4
					c3.6-2.1,7.7-3.4,10.9-3.4c7.4,0,8.9,4.1,8.9,11.1v28.6c0,1.1,0.9,2.1,2.1,2.1h11.5c1.1,0,2.1-0.9,2.1-2.1V42
					C156,28.4,148.2,21,134.2,21"/>
				<path id="Fill-11" class="st0" d="M35.4,30.6l-6.7-1.8c-7-1.9-11.6-3.6-11.6-7.9c0-6.1,7.4-6.7,13.1-6.7c5.8,0,12.5,1.3,19.8,4
					c1.7,0.6,2.7,0.4,3.3-1.3l2.8-8.4c0.6-1.8,0.4-2.6-1.5-3.4C46.1,1.5,39.3,0,30.5,0C16.2,0,0.8,5.5,0.8,21.2
					c0,11.3,6.9,17.7,24.6,22.7l7.7,2.1c8.2,2.2,11.5,3.6,11.5,8.7c0,5.2-4.9,8.5-13.3,8.5c-7.1,0-14.2-1.8-23.4-5.7
					c-2.1-0.7-3.5-0.7-4.3,1.3l-3.3,8.4c-0.8,2.1-0.3,3.1,1.5,4c8.5,4.2,19.8,6.9,29.5,6.9C48.5,78,61,69.5,61,53.4
					C61,38.5,51.8,35,35.4,30.6"/>
				<path id="Fill-13" class="st0" d="M344.9,49h-37.9c-1.1,0-2.1,0.9-2.1,2V61c0,1.1,0.9,2,2.1,2h37.9c1.1,0,2.1-0.9,2.1-2V51
					C347,49.9,346.1,49,344.9,49"/>
				<path id="Fill-15" class="st0" d="M609.5,44c0.4-7,5-10.6,11.7-10.6c5,0,10.5,3.2,10.5,10.6H609.5z M621.3,21
					C604.9,21,593,33.1,593,49.7c0,17.2,11.4,28.3,29.1,28.3c8.1,0,15.1-1.8,21.3-5.6c1.6-1,1.9-2.6,1-4.4l-2.9-5.4
					c-0.8-1.5-2.1-1.9-3.9-1c-3.1,1.6-8,3.4-13.5,3.4c-8.5,0-13.6-3.2-14.4-11.4h34c1.9,0,3.4,0,3.4-8.2C647,30.6,636.9,21,621.3,21
					L621.3,21z"/>
				<path id="Fill-17" class="st0" d="M418.5,44c0.4-7,5-10.6,11.7-10.6c5,0,10.5,3.2,10.5,10.6H418.5z M430.3,21
					C413.9,21,402,33.1,402,49.7c0,17.2,11.4,28.3,29.1,28.3c8.1,0,15.1-1.8,21.3-5.6c1.6-1,1.9-2.6,1-4.4l-2.9-5.4
					c-0.8-1.5-2.1-1.9-3.9-1c-3.1,1.6-8,3.4-13.5,3.4c-8.5,0-13.6-3.2-14.4-11.4h34c1.9,0,3.4,0,3.4-8.2C456,30.6,445.9,21,430.3,21
					L430.3,21z"/>
				<g id="Group-21" transform="translate(649.000000, 21.000000)">
					<g id="Clip-20">
					</g>
					<defs>
						<filter id="Adobe_OpacityMaskFilter" filterUnits="userSpaceOnUse" x="0.8" y="0.5" width="89.3" height="54.8">
							<feColorMatrix  type="matrix" values="1 0 0 0 0  0 1 0 0 0  0 0 1 0 0  0 0 0 1 0"/>
						</filter>
					</defs>
					<mask maskUnits="userSpaceOnUse" x="0.8" y="0.5" width="89.3" height="54.8" id="mask-2_1_">
						<g class="st1">
							<polygon id="path-1_1_" class="st2" points="0.8,0.5 90.1,0.5 90.1,55.2 0.8,55.2 							"/>
						</g>
					</mask>
					<path id="Fill-19" class="st3" d="M88.7,0.5H77c-1.2,0-2.5,1-2.9,2.1l-9.8,33.1L53.2,2.6c-0.4-1.1-1.7-2.1-3-2.1h-9.5
						c-1.2,0-2.6,1-3,2.1L26.6,35.7L17,2.6c-0.3-1.2-1.6-2.1-2.8-2.1H2.1c-1.1,0-1.6,0.7-1.3,1.7l17,50.9c0.4,1.1,1.7,2.1,2.9,2.1
						h10c1.2,0,2.6-1,3-2.1l11.6-33.2l11.3,33.2c0.4,1.1,1.7,2.1,3,2.1h10.1c1.2,0,2.6-1,3-2.1L90,2.2C90.3,1.2,89.8,0.5,88.7,0.5"
						/>
				</g>
				<path id="Fill-22" class="st0" d="M491.8,63.8c-3.9,0-8-1.1-11.2-2.8V38.4c3.5-2,7.5-3.3,10.7-3.3c9.1,0,14.8,5.5,14.8,14.4
					C506.1,58.3,500.6,63.8,491.8,63.8 M493.6,21c-5,0-10,1.5-15.2,4.7l-0.8-1.7c-0.8-1.6-1.2-2.1-2.7-2.1h-7.8
					c-1.1,0-2.1,0.9-2.1,2.1v72.9c0,1.1,0.9,2.1,2.1,2.1h11.5c1.1,0,2.1-0.9,2.1-2.1V76.1c2.3,0.8,6.1,1.8,12.3,1.8
					c16.8,0,29.1-12.1,29.1-28.9C522,30.4,510.5,21,493.6,21"/>
				<path id="Fill-24" class="st0" d="M560.7,21c-5.1,0-10.1,1.6-14,3.3V3.1c0-1.1-0.9-2.1-2.1-2.1h-11.5c-1.1,0-2.1,0.9-2.1,2.1
					v71.8c0,1.1,0.9,2.1,2.1,2.1h11.5c1.1,0,2.1-0.9,2.1-2.1V38.5c3.5-1.9,8.2-3.3,11.6-3.3c7.5,0,9.1,4.2,9.1,11.1v28.6
					c0,1.1,0.9,2.1,2.1,2.1h11.5c1.1,0,2.1-0.9,2.1-2.1v-33C583,28.6,574.9,21,560.7,21"/>
				<path id="Fill-26" class="st0" d="M331.9,35h-10.8c-1.2,0-2.1,0.9-2.1,2.1v37.9c0,1.1,0.9,2.1,2.1,2.1h10.8
					c1.2,0,2.1-0.9,2.1-2.1V37.1C334,35.9,333.1,35,331.9,35"/>
				<path id="Fill-28" class="st0" d="M389.9,1h-11.7c-1.1,0-2.1,0.9-2.1,2.1v49.7L338.6,3.3c-1.4-1.9-2.3-2.3-5-2.3h-12.5
					c-1.1,0-2.1,0.9-2.1,2.1v24.5c0,1.1,0.9,2.1,2.1,2.1h10.6c1.1,0,2.1-0.9,2.1-2.1v-6.5l40.5,53.4c1.4,1.9,2.8,2.5,5.3,2.5h10.4
					c1.1,0,2.1-0.9,2.1-2.1V3.1C392,1.9,391.1,1,389.9,1"/>
			</g>
		</g>
	</g>
</g>
</svg>
